<svg width="83" height="68" xmlns="http://www.w3.org/2000/svg" xmlns:xlink="http://www.w3.org/1999/xlink" xml:space="preserve" overflow="hidden"><g transform="translate(-386 -246)"><path d="M4.95833 44.8906 4.95833 55.8804 15.6046 62.3333 15.6046 50.2067 4.95833 43.7566 4.95833 44.8906Z" transform="matrix(1.22059 0 0 1 386 246)"/><path d="M52.3954 62.3333 63.0417 55.8804 63.0417 43.7502 52.3954 50.1996 52.3954 62.3333Z" transform="matrix(1.22059 0 0 1 386 246)"/><path d="M25.6155 20.8186C25.9964 20.6353 26.4139 20.5406 26.8366 20.5417 28.4014 20.5412 29.6703 21.8094 29.6707 23.3742 29.6711 24.4659 29.0441 25.4606 28.0592 25.9314L25.3817 27.2106 33.3129 32.0167 33.3129 19.8907 22.6667 13.4413 22.6667 22.2247Z" transform="matrix(1.22059 0 0 1 386 246)"/><path d="M34.6871 19.8836 34.6871 32.0167 42.6204 27.2099 39.9436 25.9307C38.5322 25.2551 37.9356 23.5632 38.6112 22.1518 39.0816 21.169 40.0738 20.543 41.1634 20.5417 41.5865 20.541 42.0042 20.6362 42.3853 20.82L45.3333 22.2275 45.3333 13.4342Z" transform="matrix(1.22059 0 0 1 386 246)"/><path d="M39.1347 15.584 40.4565 14.7808 45.3333 11.827 34 4.95833 29.1231 7.91208 27.8014 8.71533 22.6667 11.827 34 18.6957 39.1347 15.584Z" transform="matrix(1.22059 0 0 1 386 246)"/><path d="M22.7481 45.0967 27.625 42.1458 19.125 36.9913 19.125 40.1788C19.125 41.7436 17.8564 43.0121 16.2917 43.0121 14.7269 43.0121 13.4583 41.7436 13.4583 40.1788L13.4583 36.9913 11.4148 38.2287 10.093 39.0292 4.95833 42.1458 16.2917 49.0167 21.4264 45.9Z" transform="matrix(1.22059 0 0 1 386 246)"/><path d="M58.1648 45.0967 63.0417 42.1458 54.5417 36.9913 54.5417 40.1788C54.5417 41.7436 53.2731 43.0121 51.7083 43.0121 50.1436 43.0121 48.875 41.7436 48.875 40.1788L48.875 36.9913 46.8315 38.228 45.5097 39.0292 40.375 42.1458 51.7083 49.0167 56.843 45.9Z" transform="matrix(1.22059 0 0 1 386 246)"/><path d="M40.375 44.8906 40.375 52.9458 42.4348 51.6814C43.7686 50.8628 45.5135 51.2805 46.3321 52.6143 47.1507 53.9481 46.733 55.6929 45.3992 56.5115L43.4208 57.7292 51.0212 62.3333 51.0212 50.2067 40.375 43.7566Z" transform="matrix(1.22059 0 0 1 386 246)"/><path d="M22.5434 56.1921C21.2364 55.3317 20.8744 53.5746 21.7348 52.2676 22.586 50.9746 24.3174 50.6041 25.6232 51.4356L27.625 52.7319 27.625 43.7502 16.9787 50.1996 16.9787 62.3333 24.7513 57.6222Z" transform="matrix(1.22059 0 0 1 386 246)"/><path d="M33.9561 61.625C33.6829 61.6251 33.4155 61.5461 33.1861 61.3976L23.3134 55.0028C22.6498 54.5883 22.4479 53.7143 22.8624 53.0508 23.2769 52.3872 24.1508 52.1853 24.8144 52.5998 24.8275 52.6079 24.8405 52.6163 24.8533 52.6249L33.9766 58.5338 43.1757 52.8891C43.8427 52.4799 44.7152 52.6889 45.1244 53.3559 45.5336 54.0229 45.3245 54.8953 44.6576 55.3045L34.6963 61.416C34.4735 61.5526 34.2174 61.6249 33.9561 61.625Z" transform="matrix(1.22059 0 0 1 386 246)"/><path d="M17.7083 40.1752 17.7083 29.3059 27.4479 24.6535C28.1541 24.3162 28.4529 23.4702 28.1155 22.7641 27.7781 22.0579 26.9322 21.7591 26.226 22.0965L15.6818 27.1348C15.1891 27.3698 14.8754 27.8669 14.875 28.4127L14.875 40.1752C14.875 40.9577 15.5092 41.5919 16.2917 41.5919L16.2917 41.5919C17.0741 41.5919 17.7083 40.9577 17.7083 40.1752Z" transform="matrix(1.22059 0 0 1 386 246)"/><path d="M53.125 40.1752 53.125 28.4127C53.1237 27.868 52.8104 27.3724 52.3189 27.1377L41.774 22.1C41.0678 21.7626 40.2219 22.0615 39.8845 22.7676 39.5471 23.4737 39.8459 24.3197 40.5521 24.6571L50.2917 29.3059 50.2917 40.1752C50.2917 40.9577 50.9259 41.5919 51.7083 41.5919 52.4908 41.5919 53.125 40.9577 53.125 40.1752Z" transform="matrix(1.22059 0 0 1 386 246)"/></g></svg>